# xmcd
#
# Track frame offsets:
#	183
#	21170
#	44835
#	60023
#	73553
#	94883
#	110060
#	135388
#	157005
#	175050
#	192035
#	208613
#	224800
#	247448
#	273878
#
# Disc length: 3847
#
# Revision: 2
# Processed by: cddbd v1.5.1PL0 Copyright (c) Steve Scherf et al.
# Submitted via: CDCOPY 4.744
# Normalized: r1:TDELIM( - )
#
DISCID=e40f050f
DTITLE=Various Artist - Agua e oro CD2
DYEAR=1900
DGENRE=
TTITLE0=Gal Costa - Imunizacao racional (que beleza)
TTITLE1=Skank - Garota nacional
TTITLE2=Chiclete com banana - Quer rimar chiclete com banana
TTITLE3=Cidade negra - SOS Brasil
TTITLE4=Carlinhos Brown - A namorada
TTITLE5=Dida Banda Femina - O Rio
TTITLE6=Lulu Santos - Kriptonita
TTITLE7=Arnaldo Antunes - Musica para ouvir
TTITLE8=Lenine - Na pressao
TTITLE9=Xamà - Lobinho
TTITLE10=Daniela Mercury - Rapunzel
TTITLE11=Ana Carolina - Garganta
TTITLE12=Hanoi Hanoi - Totalmente demais
TTITLE13=Kau Group - Purina minari
TTITLE14=Tamba Trio - Mas que nada
EXTD=
EXTT0=
EXTT1=
EXTT2=
EXTT3=
EXTT4=
EXTT5=
EXTT6=
EXTT7=
EXTT8=
EXTT9=
EXTT10=
EXTT11=
EXTT12=
EXTT13=
EXTT14=
PLAYORDER=
